<svg width="114" height="112" viewBox="0 0 114 112" fill="none" xmlns="http://www.w3.org/2000/svg">
<path d="M22.7559 39.4355L17.6559 42.3755L9.71585 28.6255L3.39584 32.2755C2.25019 32.9385 1.41424 34.0288 1.0712 35.3072C0.72815 36.5857 0.906043 37.948 1.56589 39.0955L39.7359 105.175C41.3673 107.997 44.0517 110.056 47.1998 110.899C50.3479 111.743 53.7021 111.303 56.5258 109.675L72.2359 100.615L25.4558 19.5455L14.8159 25.6855L22.7559 39.4355ZM50.3759 99.0655L23.7959 53.0655L28.8958 50.1255L55.4759 96.1255L50.3759 99.0655Z" fill="
#6246EA"/>
<path d="M41.1983 10.4516L30.5549 16.5966L77.3599 97.6653L88.0033 91.5203L41.1983 10.4516Z" fill="
#6246EA"/>
<path d="M84.7859 29.9654L78.6359 19.3254L59.4759 30.3854L65.6458 41.0154L93.1059 88.5854C95.9273 86.954 97.986 84.2696 98.8297 81.1215C99.6735 77.9734 99.2333 74.6192 97.6059 71.7954L76.2859 34.8754L84.7859 29.9654Z" fill="
#6246EA"/>
<path d="M70.9159 5.94549C69.8174 4.05308 68.1823 2.52903 66.2174 1.56616C64.2526 0.603283 62.0463 0.244871 59.8776 0.536263C57.709 0.827655 55.6756 1.75576 54.0346 3.20314C52.3936 4.65052 51.2187 6.55214 50.6588 8.66738C50.0988 10.7826 50.1789 13.0164 50.8888 15.0862C51.5987 17.1559 52.9067 18.9686 54.6471 20.2948C56.3875 21.621 58.4821 22.4011 60.666 22.5366C62.8499 22.672 65.025 22.1565 66.9159 21.0555C69.4464 19.5789 71.2885 17.1594 72.0382 14.3271C72.788 11.4948 72.3844 8.48073 70.9159 5.94549ZM62.3458 13.2355C62.0021 13.4261 61.6098 13.5112 61.218 13.4801C60.8262 13.4491 60.4522 13.3032 60.1427 13.0609C59.8333 12.8185 59.6022 12.4903 59.4782 12.1173C59.3542 11.7443 59.3428 11.3431 59.4455 10.9637C59.5482 10.5843 59.7605 10.2436 60.0557 9.98409C60.351 9.72461 60.7162 9.55789 61.1056 9.50474C61.4951 9.45159 61.8915 9.51437 62.2455 9.68524C62.5995 9.85611 62.8952 10.1275 63.0958 10.4655C63.2324 10.6956 63.3215 10.9508 63.3577 11.2159C63.3939 11.4811 63.3765 11.7508 63.3065 12.0091C63.2366 12.2674 63.1155 12.509 62.9505 12.7197C62.7855 12.9303 62.5799 13.1057 62.3458 13.2355Z" fill="
#6246EA"/>
<path d="M87.0559 2.83549L78.6759 7.67549L98.2359 41.5155L91.0359 48.6455L97.3859 59.6455L112.236 45.1755C112.662 44.77 112.94 44.2335 113.025 43.6516C113.11 43.0697 112.998 42.4761 112.706 41.9655L90.7058 3.80549C90.5369 3.49497 90.3065 3.22215 90.0286 3.0037C89.7508 2.78525 89.4312 2.62576 89.0896 2.53497C88.748 2.44418 88.3914 2.42401 88.0418 2.47568C87.6921 2.52735 87.3566 2.64979 87.0559 2.83549Z" fill="
#6246EA"/>
</svg>
