<svg width="38" height="38" viewBox="0 0 38 38" fill="none" xmlns="http://www.w3.org/2000/svg">
<path d="M8.01323 13.3586L6.32991 14.3862L3.71251 9.66613L1.62322 10.9164C1.24653 11.144 0.971937 11.5171 0.859389 11.9541C0.746841 12.3911 0.805479 12.8566 1.0225 13.249L13.621 35.8935C13.887 36.3722 14.2413 36.7919 14.6636 37.1285C15.086 37.4651 15.5681 37.712 16.0824 37.8551C16.5968 37.9983 17.1333 38.0348 17.6612 37.9627C18.1892 37.8906 18.6983 37.7112 19.1594 37.4348L24.3546 34.3213L8.90769 6.55255L5.39583 8.65567L8.01323 13.3586ZM17.1329 33.7903L8.35979 18.0169L10.0431 17.0099L18.8162 32.7662L17.1329 33.7903Z" fill="white"/>
<path d="M14.1044 3.4385L10.5914 5.54333L26.04 33.3116L29.553 31.2067L14.1044 3.4385Z" fill="white"/>
<path d="M28.487 10.1217L26.4604 6.47717L20.1364 10.2758L22.1696 13.9066L31.2331 30.2006C31.6946 29.9243 32.099 29.5563 32.4234 29.1177C32.7478 28.6791 32.9857 28.1784 33.1237 27.6444C33.2616 27.1103 33.2968 26.5533 33.2273 26.0052C33.1577 25.457 32.9848 24.9284 32.7184 24.4496L25.6815 11.8035L28.487 10.1217Z" fill="white"/>
<path d="M23.9057 1.89415C23.5432 1.24595 23.0035 0.723922 22.355 0.394112C21.7064 0.0643014 20.9782 -0.0584655 20.2624 0.0413442C19.5466 0.141154 18.8755 0.459055 18.3338 0.954823C17.7922 1.45059 17.4045 2.10195 17.2196 2.82648C17.0348 3.55101 17.0612 4.31615 17.2956 5.02509C17.5299 5.73403 17.9616 6.35491 18.536 6.80917C19.1105 7.26344 19.8018 7.53067 20.5227 7.57705C21.2435 7.62343 21.9614 7.44688 22.5855 7.06974C23.4214 6.56462 24.03 5.73584 24.2775 4.76543C24.525 3.79503 24.3913 2.76233 23.9057 1.89415ZM21.0804 4.39118C20.9672 4.457 20.8377 4.48672 20.7083 4.47662C20.5789 4.46652 20.4552 4.41706 20.3527 4.33441C20.2503 4.25176 20.1735 4.1396 20.1322 4.01194C20.0908 3.88429 20.0866 3.7468 20.1201 3.61668C20.1536 3.48656 20.2233 3.36957 20.3205 3.28034C20.4177 3.19111 20.5381 3.1336 20.6667 3.115C20.7952 3.0964 20.9262 3.11753 21.0432 3.17576C21.1602 3.23399 21.2581 3.32673 21.3246 3.44238C21.37 3.52079 21.3998 3.60782 21.4122 3.69835C21.4246 3.78889 21.4194 3.88108 21.397 3.96951C21.3745 4.05794 21.3352 4.1408 21.2814 4.21322C21.2276 4.28564 21.1604 4.34615 21.0837 4.39118H21.0804Z" fill="white"/>
<path d="M29.2362 0.832344L26.4703 2.48675L32.9197 14.0779L30.54 16.5201L32.6392 20.2879L37.5307 15.3281C37.6723 15.1899 37.7647 15.006 37.7929 14.8064C37.8211 14.6068 37.7833 14.4031 37.6858 14.2286L30.4245 1.15775C30.3681 1.05429 30.2923 0.963602 30.2016 0.891011C30.111 0.81842 30.0072 0.7654 29.8965 0.735075C29.7857 0.704749 29.6703 0.697733 29.5569 0.714438C29.4435 0.731144 29.3345 0.771233 29.2362 0.832344Z" fill="white"/>
</svg>
