<svg width="32" height="32" viewBox="0 0 32 32" fill="none" xmlns="http://www.w3.org/2000/svg">
  <path
    d="M29.25 12.571H19.125V2.44598C19.125 1.25067 18.0703 0.195984 16.875 0.195984H14.625C13.3594 0.195984 12.375 1.25067 12.375 2.44598V12.571H2.25C0.984375 12.571 0 13.6257 0 14.821V17.071C0 18.3366 0.984375 19.321 2.25 19.321H12.375V29.446C12.375 30.7116 13.3594 31.696 14.625 31.696H16.875C18.0703 31.696 19.125 30.7116 19.125 29.446V19.321H29.25C30.4453 19.321 31.5 18.3366 31.5 17.071V14.821C31.5 13.6257 30.4453 12.571 29.25 12.571Z"
    fill="#FFFFFE"
  />
</svg>
